<?xml version="1.0" encoding="UTF-8"?>
<svg id="Capa_1" data-name="Capa 1" xmlns="http://www.w3.org/2000/svg" viewBox="0 0 164 39.25">
  <defs>
    <style>
      .cls-1 {
        fill: #00205c;
      }

      .cls-2 {
        fill: #898a8d;
      }

      .cls-3 {
        fill: #212f5a;
      }
    </style>
  </defs>
  <g>
    <path class="cls-3" d="m19.72,20.82c.63,0,1.15-.51,1.15-1.15s-.51-1.15-1.15-1.15-1.15.51-1.15,1.15.51,1.15,1.15,1.15"/>
    <path class="cls-3" d="m22.74,20.42c.72,0,1.31-.59,1.31-1.31s-.59-1.31-1.31-1.31-1.31.59-1.31,1.31.59,1.31,1.31,1.31"/>
    <path class="cls-3" d="m25.93,18.93c.86,0,1.56-.69,1.56-1.56s-.7-1.55-1.56-1.55-1.55.7-1.55,1.55.69,1.56,1.55,1.56"/>
    <path class="cls-3" d="m28.56,19.01c0-1.22.99-2.21,2.21-2.21s2.21.99,2.21,2.21-.99,2.21-2.21,2.21-2.21-.99-2.21-2.21"/>
    <path class="cls-3" d="m36.37,20.23c1.56,0,2.83-1.27,2.83-2.83s-1.27-2.83-2.83-2.83-2.83,1.27-2.83,2.83,1.27,2.83,2.83,2.83"/>
    <path class="cls-3" d="m36.02,26.35c1.56,0,2.83-1.27,2.83-2.83s-1.27-2.83-2.83-2.83-2.83,1.27-2.83,2.83,1.27,2.83,2.83,2.83"/>
    <path class="cls-3" d="m30.71,29.32c0-1.56,1.27-2.83,2.83-2.83s2.83,1.27,2.83,2.83-1.27,2.83-2.83,2.83-2.83-1.27-2.83-2.83"/>
    <path class="cls-3" d="m29.17,36.51c1.56,0,2.83-1.27,2.83-2.83s-1.27-2.83-2.83-2.83-2.83,1.27-2.83,2.83,1.27,2.83,2.83,2.83"/>
    <path class="cls-3" d="m20.67,36.07c0-1.56,1.27-2.83,2.83-2.83s2.83,1.27,2.83,2.83-1.27,2.83-2.83,2.83-2.83-1.27-2.83-2.83"/>
    <path class="cls-3" d="m14.42,36.42c0-1.56,1.27-2.83,2.83-2.83s2.83,1.27,2.83,2.83-1.27,2.83-2.83,2.83-2.83-1.27-2.83-2.83"/>
    <path class="cls-3" d="m8.34,34.32c0-1.56,1.27-2.83,2.83-2.83s2.83,1.27,2.83,2.83-1.27,2.83-2.83,2.83-2.83-1.27-2.83-2.83"/>
    <path class="cls-3" d="m3.7,30.36c0-1.56,1.27-2.83,2.83-2.83s2.83,1.27,2.83,2.83-1.27,2.83-2.83,2.83-2.83-1.27-2.83-2.83"/>
    <path class="cls-3" d="m.73,24.84c0-1.56,1.27-2.83,2.83-2.83s2.83,1.27,2.83,2.83-1.27,2.83-2.83,2.83-2.83-1.27-2.83-2.83"/>
    <path class="cls-3" d="m0,18.43c0-1.56,1.27-2.83,2.83-2.83s2.83,1.27,2.83,2.83-1.27,2.83-2.83,2.83-2.83-1.27-2.83-2.83"/>
    <path class="cls-3" d="m34.56,14.56c1.56,0,2.83-1.27,2.83-2.83s-1.27-2.83-2.83-2.83-2.83,1.27-2.83,2.83,1.27,2.83,2.83,2.83"/>
    <path class="cls-3" d="m27.9,7.05c0-1.56,1.27-2.83,2.83-2.83s2.83,1.27,2.83,2.83-1.27,2.83-2.83,2.83-2.83-1.27-2.83-2.83"/>
    <path class="cls-3" d="m22.68,3.9c0-1.56,1.27-2.83,2.83-2.83s2.83,1.27,2.83,2.83-1.27,2.83-2.83,2.83-2.83-1.27-2.83-2.83"/>
    <path class="cls-3" d="m16.57,2.83c0-1.56,1.27-2.83,2.83-2.83s2.83,1.27,2.83,2.83-1.27,2.83-2.83,2.83-2.83-1.27-2.83-2.83"/>
    <path class="cls-3" d="m13.26,6.99c1.56,0,2.83-1.27,2.83-2.83s-1.27-2.83-2.83-2.83-2.83,1.27-2.83,2.83,1.27,2.83,2.83,2.83"/>
    <path class="cls-3" d="m5.21,7.45c0-1.56,1.27-2.83,2.83-2.83s2.83,1.27,2.83,2.83-1.27,2.83-2.83,2.83-2.83-1.27-2.83-2.83"/>
    <path class="cls-3" d="m1.64,12.37c0-1.56,1.27-2.83,2.83-2.83s2.83,1.27,2.83,2.83-1.27,2.83-2.83,2.83-2.83-1.27-2.83-2.83"/>
    <path class="cls-3" d="m23.92,10.78c0-1.22.99-2.21,2.21-2.21s2.21.99,2.21,2.21-.99,2.21-2.21,2.21-2.21-.99-2.21-2.21"/>
    <path class="cls-3" d="m19.43,8.78c0-1.22.99-2.21,2.21-2.21s2.21.99,2.21,2.21-.99,2.21-2.21,2.21-2.21-.99-2.21-2.21"/>
    <path class="cls-3" d="m27.8,23.71c0-1.22.99-2.21,2.21-2.21s2.21.99,2.21,2.21-.99,2.21-2.21,2.21-2.21-.99-2.21-2.21"/>
    <path class="cls-3" d="m29.39,16.6c1.22,0,2.21-.99,2.21-2.21s-.99-2.21-2.21-2.21-2.21.99-2.21,2.21.99,2.21,2.21,2.21"/>
    <path class="cls-3" d="m14.5,8.99c0-1.22.99-2.21,2.21-2.21s2.21.99,2.21,2.21-.99,2.21-2.21,2.21-2.21-.99-2.21-2.21"/>
    <path class="cls-3" d="m10.11,11.31c0-1.22.99-2.21,2.21-2.21s2.21.99,2.21,2.21-.99,2.21-2.21,2.21-2.21-.99-2.21-2.21"/>
    <path class="cls-3" d="m7.29,15.32c0-1.22.99-2.21,2.21-2.21s2.21.99,2.21,2.21-.99,2.21-2.21,2.21-2.21-.99-2.21-2.21"/>
    <path class="cls-3" d="m6.29,20.39c0-1.22.99-2.21,2.21-2.21s2.21.99,2.21,2.21-.99,2.21-2.21,2.21-2.21-.99-2.21-2.21"/>
    <path class="cls-3" d="m7.84,25.38c0-1.22.99-2.21,2.21-2.21s2.21.99,2.21,2.21-.99,2.21-2.21,2.21-2.21-.99-2.21-2.21"/>
    <path class="cls-3" d="m11.43,29.02c0-1.22.99-2.21,2.21-2.21s2.21.99,2.21,2.21-.99,2.21-2.21,2.21-2.21-.99-2.21-2.21"/>
    <path class="cls-3" d="m16.03,30.69c0-1.22.99-2.21,2.21-2.21s2.21.99,2.21,2.21-.99,2.21-2.21,2.21-2.21-.99-2.21-2.21"/>
    <path class="cls-3" d="m23.2,32.44c1.22,0,2.21-.99,2.21-2.21s-.99-2.21-2.21-2.21-2.21.99-2.21,2.21.99,2.21,2.21,2.21"/>
    <path class="cls-3" d="m27.31,29.97c1.22,0,2.21-.99,2.21-2.21s-.99-2.21-2.21-2.21-2.21.99-2.21,2.21.99,2.21,2.21,2.21"/>
    <path class="cls-3" d="m20.67,18.16c.72,0,1.31-.59,1.31-1.31s-.59-1.31-1.31-1.31-1.31.59-1.31,1.31.59,1.31,1.31,1.31"/>
    <path class="cls-3" d="m16.32,17.38c0-.72.59-1.31,1.31-1.31s1.31.59,1.31,1.31-.59,1.31-1.31,1.31-1.31-.59-1.31-1.31"/>
    <path class="cls-3" d="m16.68,21.7c.72,0,1.31-.59,1.31-1.31s-.59-1.31-1.31-1.31-1.31.59-1.31,1.31.59,1.31,1.31,1.31"/>
    <path class="cls-3" d="m18.81,23.97c.72,0,1.31-.59,1.31-1.31s-.59-1.31-1.31-1.31-1.31.59-1.31,1.31.59,1.31,1.31,1.31"/>
    <path class="cls-3" d="m21.71,23.36c.72,0,1.31-.59,1.31-1.31s-.59-1.31-1.31-1.31-1.31.59-1.31,1.31.59,1.31,1.31,1.31"/>
    <path class="cls-3" d="m18.5,12.97c0-.86.7-1.56,1.56-1.56s1.56.7,1.56,1.56-.7,1.56-1.56,1.56-1.56-.7-1.56-1.56"/>
    <path class="cls-3" d="m22.1,14.25c0-.86.7-1.56,1.56-1.56s1.56.7,1.56,1.56-.7,1.56-1.56,1.56-1.56-.7-1.56-1.56"/>
    <path class="cls-3" d="m16.4,15.31c.86,0,1.55-.7,1.55-1.56s-.7-1.55-1.55-1.55-1.56.7-1.56,1.55.7,1.56,1.56,1.56"/>
    <path class="cls-3" d="m12.25,16.36c0-.86.7-1.56,1.56-1.56s1.56.7,1.56,1.56-.7,1.55-1.56,1.55-1.56-.7-1.56-1.55"/>
    <path class="cls-3" d="m11.41,20.28c0-.86.7-1.55,1.56-1.55s1.55.7,1.55,1.55-.7,1.56-1.55,1.56-1.56-.7-1.56-1.56"/>
    <path class="cls-3" d="m14.48,25.45c.86,0,1.55-.7,1.55-1.56s-.7-1.56-1.55-1.56-1.56.7-1.56,1.56.69,1.56,1.56,1.56"/>
    <path class="cls-3" d="m17.62,27.64c.86,0,1.56-.7,1.56-1.56s-.7-1.56-1.56-1.56-1.55.7-1.55,1.56.7,1.56,1.55,1.56"/>
    <path class="cls-3" d="m19.71,26.22c0-.86.7-1.56,1.56-1.56s1.56.7,1.56,1.56-.7,1.55-1.56,1.55-1.56-.69-1.56-1.55"/>
    <path class="cls-3" d="m24.43,25.97c.86,0,1.55-.7,1.55-1.56s-.7-1.56-1.55-1.56-1.56.7-1.56,1.56.7,1.56,1.56,1.56"/>
    <path class="cls-3" d="m24.6,21.03c0-.86.7-1.55,1.55-1.55s1.56.7,1.56,1.55-.7,1.56-1.56,1.56-1.55-.7-1.55-1.56"/>
  </g>
  <g>
    <g>
      <path class="cls-1" d="m56.05,17.93c.14-.58.36-1.37.6-2.49.34-.02,1.43.02,1.77.08.06.76.06,2.09.06,2.83l-.26.54c-1.12.76-2.91,1.37-4.94,1.37-4.26,0-6.95-2.69-6.95-7.11s3.23-7.43,7.31-7.43c1.83,0,3.35.5,4.64,1.16l.28.54c-.16,1.04-.42,2.45-.6,3.45-.36.02-1.25,0-1.65-.08-.18-1.2-.4-2.27-.5-2.83-.56-.32-1.37-.52-2.29-.52-1.16,0-2.17.3-2.87.8-.92,1.1-1.55,2.71-1.55,4.76,0,3.33,1.63,5.48,4.46,5.48,1.17,0,2.01-.2,2.49-.54Z"/>
      <path class="cls-1" d="m59.78,13.41c0-4.64,2.91-7.69,7.13-7.69,3.82,0,6.45,2.71,6.45,6.91,0,4.44-2.79,7.63-6.91,7.63s-6.67-2.69-6.67-6.85Zm9.6,4.22c.52-.68,1.25-2.19,1.25-4.64,0-3.41-1.23-5.54-4.1-5.54-1.08,0-2.07.4-2.73.88-.74,1.02-1.29,2.63-1.29,4.82,0,3.33,1.41,5.38,4.14,5.38,1.2,0,2.15-.4,2.73-.9Z"/>
      <path class="cls-1" d="m84.88,20.04l-1.79-2.39c-1.83-2.45-4.12-5.3-5.96-7.57.04,3.57.12,7.83.32,8.19.2.28,1.37.5,2.27.7l-.2,1h-5.72l-.2-1,1.77-.52c.08-.68.14-2.49.14-5.38-.02-3.39-.04-5.06-.24-5.34-.32-.24-1.12-.52-1.73-.72l.2-1c1.25,0,2.71-.04,3.86-.06,1.37,2.27,4.76,6.49,7.59,10.04-.02-4.1-.12-7.93-.34-8.29-.16-.26-1.31-.5-2.09-.7l.22-1h5.68l.22,1-1.79.54c-.16,1.55-.26,6.27-.26,12.29l-1.95.2Z"/>
      <path class="cls-1" d="m93.82,19.96h-5.48l-.2-1,1.61-.52c1.35-3.27,2.71-6.97,4-10.48l.58-1.95c.94-.12,2.47-.22,3.37-.24.16.64.42,1.33.74,2.23,1.33,3.62,2.91,7.83,3.92,10.44l1.63.52-.2,1h-6.05l-.22-1,1.99-.52c-.34-.9-.72-1.95-1.12-3.13l-5.38.1c-.36,1.04-.68,2.07-1,3.03l2.01.52-.22,1Zm4.08-6.03c-.7-1.95-1.47-4.1-2.29-6.25-.72,2.01-1.43,4.12-2.11,6.19l4.4.06Z"/>
      <path class="cls-1" d="m106.85,18.45c.06-.34.12-2.73.12-3.72v-3.59c0-1.24,0-3.25-.16-3.47-.18-.24-1.1-.48-1.75-.66l.22-1h5.98l.22,1-1.79.52c-.06.34-.12,2.73-.12,3.72v1.12l6.83.06v-1.29c0-1.24,0-3.25-.16-3.47-.18-.24-1.1-.48-1.75-.66l.22-1h5.98l.22,1-1.79.52c-.06.34-.12,2.73-.12,3.72v3.59c0,1.24,0,3.25.16,3.47.18.24,1.1.48,1.75.66l-.22,1h-5.98l-.22-1,1.79-.52c.06-.34.12-2.73.12-3.72v-.9l-6.83.1v.92c0,1.24,0,3.25.16,3.47.18.24,1.1.48,1.75.66l-.22,1h-5.98l-.22-1,1.79-.52Z"/>
      <path class="cls-1" d="m131.21,17.93c.14-.58.36-1.37.6-2.49.34-.02,1.43.02,1.77.08.06.76.06,2.09.06,2.83l-.26.54c-1.12.76-2.91,1.37-4.94,1.37-4.26,0-6.95-2.69-6.95-7.11s3.23-7.43,7.31-7.43c1.83,0,3.35.5,4.64,1.16l.28.54c-.16,1.04-.42,2.45-.6,3.45-.36.02-1.25,0-1.65-.08-.18-1.2-.4-2.27-.5-2.83-.56-.32-1.37-.52-2.29-.52-1.16,0-2.17.3-2.87.8-.92,1.1-1.55,2.71-1.55,4.76,0,3.33,1.63,5.48,4.46,5.48,1.17,0,2.01-.2,2.49-.54Z"/>
      <path class="cls-1" d="m140.77,18.45c.04-.28.08-1.67.1-2.87-1.21-2.09-3.39-5.84-4.68-8.07l-1.49-.5.2-1h6.13l.22,1-1.97.52c.82,1.63,2.05,3.82,3.47,6.25,1.14-2.07,2.23-4.14,3.31-6.23l-1.87-.54.2-1h5.26l.2,1-1.65.58c-1.27,2.23-2.81,4.78-4.7,7.97,0,1.2.02,2.57.16,2.75.16.24,1.08.48,1.75.66l-.22,1h-6l-.22-1,1.81-.52Z"/>
      <path class="cls-1" d="m156.03,18.45c.06-.34.1-2.15.1-3.72v-7.37h-.36c-.86,0-1.77.04-2.41.12l-.56,2.59c-.42.02-1.35,0-1.75-.06-.04-1.27-.04-2.65,0-3.98h6.71c2.35,0,4.26-.02,5.76-.12.12.16.4.5.48.66-.06,1.06-.2,2.31-.34,3.47-.36.04-1.19.02-1.57-.02l-.5-2.53c-.66-.08-1.53-.1-2.33-.1h-.52v7.47c0,1.24,0,3.25.16,3.47.16.24,1.1.48,1.75.66l-.22,1h-6l-.22-1,1.81-.52Z"/>
    </g>
    <g>
      <path class="cls-2" d="m47.07,28.5c-.23-.12-.41-.3-.54-.52-.13-.22-.2-.47-.2-.75s.07-.53.2-.75c.13-.22.31-.39.54-.52.23-.12.49-.19.78-.19.24,0,.46.04.66.13.2.09.36.21.49.37l-.42.38c-.19-.22-.42-.33-.71-.33-.17,0-.33.04-.46.11-.14.08-.24.18-.32.32-.08.14-.11.29-.11.47s.04.33.11.46c.08.14.18.24.32.32.14.08.29.11.46.11.28,0,.52-.11.71-.33l.42.38c-.13.16-.3.29-.5.37-.2.09-.42.13-.66.13-.29,0-.54-.06-.78-.19Z"/>
      <path class="cls-2" d="m50.35,28.5c-.23-.13-.42-.3-.55-.52-.13-.22-.2-.47-.2-.74s.07-.52.2-.74c.13-.22.32-.39.55-.52.23-.13.5-.19.79-.19s.55.06.79.19c.23.13.42.3.55.52.13.22.2.47.2.74s-.07.52-.2.74c-.13.22-.32.39-.55.52-.23.13-.49.19-.79.19s-.55-.06-.79-.19Zm1.24-.48c.13-.08.24-.18.31-.32.08-.14.11-.29.11-.46s-.04-.33-.11-.47c-.08-.14-.18-.24-.31-.32-.13-.08-.28-.11-.45-.11s-.32.04-.45.11c-.13.08-.24.18-.31.32-.08.14-.11.29-.11.47s.04.33.11.46c.08.14.18.24.31.32.13.08.28.11.45.11s.31-.04.45-.11Z"/>
      <path class="cls-2" d="m56.14,25.84v2.8h-.53l-1.4-1.7v1.7h-.64v-2.8h.54l1.39,1.7v-1.7h.64Z"/>
      <path class="cls-2" d="m57.48,28.6c-.21-.06-.37-.14-.5-.23l.22-.49c.12.09.26.16.43.21.17.05.33.08.5.08.18,0,.32-.03.41-.08.09-.05.13-.13.13-.22,0-.07-.03-.12-.08-.17-.05-.04-.12-.08-.2-.11-.08-.03-.19-.06-.33-.09-.21-.05-.39-.1-.52-.15-.14-.05-.25-.13-.35-.24-.1-.11-.15-.26-.15-.45,0-.16.04-.31.13-.44.09-.13.22-.24.4-.31.18-.08.39-.12.65-.12.18,0,.35.02.52.06.17.04.32.1.45.18l-.2.49c-.26-.15-.52-.22-.78-.22-.18,0-.32.03-.4.09-.09.06-.13.14-.13.23s.05.17.15.21c.1.05.25.09.46.14.21.05.39.1.52.15.14.05.25.13.35.24.1.11.15.26.15.44,0,.16-.04.31-.13.44-.09.13-.22.24-.4.31-.18.08-.4.12-.65.12-.22,0-.44-.03-.64-.09Z"/>
      <path class="cls-2" d="m62.33,28.12v.52h-2.17v-2.8h2.12v.52h-1.47v.61h1.3v.5h-1.3v.65h1.53Z"/>
      <path class="cls-2" d="m63.24,28.58c-.16-.07-.29-.17-.39-.3l.36-.43c.15.21.33.31.52.31.26,0,.4-.15.4-.46v-1.33h-.99v-.52h1.63v1.82c0,.34-.09.6-.26.77-.17.17-.42.26-.75.26-.19,0-.36-.04-.52-.11Z"/>
      <path class="cls-2" d="m66.39,28.5c-.23-.13-.42-.3-.55-.52-.13-.22-.2-.47-.2-.74s.07-.52.2-.74c.13-.22.32-.39.55-.52.23-.13.5-.19.79-.19s.55.06.79.19c.23.13.42.3.55.52.13.22.2.47.2.74s-.07.52-.2.74c-.13.22-.32.39-.55.52-.23.13-.49.19-.79.19s-.55-.06-.79-.19Zm1.24-.48c.13-.08.24-.18.31-.32.08-.14.11-.29.11-.46s-.04-.33-.11-.47c-.08-.14-.18-.24-.31-.32-.13-.08-.28-.11-.45-.11s-.32.04-.45.11c-.13.08-.24.18-.31.32-.08.14-.11.29-.11.47s.04.33.11.46c.08.14.18.24.31.32.13.08.28.11.45.11s.31-.04.45-.11Z"/>
      <path class="cls-2" d="m73.71,25.84v2.8h-.53l-1.4-1.7v1.7h-.64v-2.8h.54l1.39,1.7v-1.7h.64Z"/>
      <path class="cls-2" d="m76.62,28.04h-1.3l-.25.6h-.67l1.25-2.8h.64l1.25,2.8h-.68l-.25-.6Zm-.2-.49l-.44-1.07-.44,1.07h.89Z"/>
      <path class="cls-2" d="m78.77,28.5c-.23-.12-.41-.3-.54-.52-.13-.22-.2-.47-.2-.75s.07-.53.2-.75c.13-.22.31-.39.54-.52.23-.12.49-.19.78-.19.24,0,.46.04.66.13.2.09.36.21.49.37l-.42.38c-.19-.22-.42-.33-.71-.33-.17,0-.33.04-.46.11-.14.08-.24.18-.32.32-.08.14-.11.29-.11.47s.04.33.11.46c.08.14.18.24.32.32.14.08.29.11.46.11.28,0,.52-.11.71-.33l.42.38c-.13.16-.3.29-.5.37-.2.09-.42.13-.66.13-.29,0-.54-.06-.78-.19Z"/>
      <path class="cls-2" d="m81.54,25.84h.65v2.8h-.65v-2.8Z"/>
      <path class="cls-2" d="m83.82,28.5c-.23-.13-.42-.3-.55-.52-.13-.22-.2-.47-.2-.74s.07-.52.2-.74c.13-.22.32-.39.55-.52.23-.13.5-.19.79-.19s.55.06.79.19c.23.13.42.3.55.52.13.22.2.47.2.74s-.07.52-.2.74c-.13.22-.32.39-.55.52-.23.13-.49.19-.79.19s-.55-.06-.79-.19Zm1.24-.48c.13-.08.24-.18.31-.32.08-.14.11-.29.11-.46s-.04-.33-.11-.47c-.08-.14-.18-.24-.31-.32-.13-.08-.28-.11-.45-.11s-.32.04-.45.11c-.13.08-.24.18-.31.32-.08.14-.11.29-.11.47s.04.33.11.46c.08.14.18.24.31.32.13.08.28.11.45.11s.31-.04.45-.11Z"/>
      <path class="cls-2" d="m89.61,25.84v2.8h-.53l-1.4-1.7v1.7h-.64v-2.8h.54l1.39,1.7v-1.7h.64Z"/>
      <path class="cls-2" d="m92.52,28.04h-1.3l-.25.6h-.66l1.25-2.8h.64l1.25,2.8h-.68l-.25-.6Zm-.2-.49l-.44-1.07-.44,1.07h.89Z"/>
      <path class="cls-2" d="m94.14,25.84h.65v2.28h1.41v.53h-2.06v-2.8Z"/>
      <path class="cls-2" d="m98.5,25.84h1.27c.3,0,.57.06.81.17.23.12.42.28.54.49.13.21.19.46.19.74s-.06.53-.19.74c-.13.21-.31.37-.54.49-.23.12-.5.17-.81.17h-1.27v-2.8Zm1.24,2.27c.28,0,.5-.08.67-.23.17-.16.25-.37.25-.64s-.08-.48-.25-.63c-.17-.16-.39-.23-.67-.23h-.59v1.74h.59Z"/>
      <path class="cls-2" d="m104.38,28.12v.52h-2.17v-2.8h2.12v.52h-1.47v.61h1.3v.5h-1.3v.65h1.53Z"/>
      <path class="cls-2" d="m109.4,25.84v2.8h-.65v-1.15h-1.27v1.15h-.65v-2.8h.65v1.11h1.27v-1.11h.65Z"/>
      <path class="cls-2" d="m110.78,28.36c-.22-.22-.33-.54-.33-.95v-1.57h.65v1.55c0,.5.21.75.63.75.2,0,.36-.06.46-.18.11-.12.16-.31.16-.57v-1.55h.64v1.57c0,.41-.11.73-.33.95-.22.22-.53.33-.94.33s-.71-.11-.94-.33Z"/>
      <path class="cls-2" d="m116.58,28.64v-1.68s-.83,1.39-.83,1.39h-.29l-.82-1.35v1.65h-.61v-2.8h.54l1.05,1.74,1.03-1.74h.53v2.8s-.6,0-.6,0Z"/>
      <path class="cls-2" d="m120.1,28.04h-1.3l-.25.6h-.66l1.25-2.8h.64l1.25,2.8h-.68l-.25-.6Zm-.2-.49l-.44-1.07-.44,1.07h.89Z"/>
      <path class="cls-2" d="m124.3,25.84v2.8h-.53l-1.4-1.7v1.7h-.64v-2.8h.54l1.39,1.7v-1.7h.64Z"/>
      <path class="cls-2" d="m125.36,25.84h.65v2.8h-.65v-2.8Z"/>
      <path class="cls-2" d="m127.08,25.84h1.27c.3,0,.57.06.81.17.23.12.42.28.54.49.13.21.19.46.19.74s-.06.53-.19.74c-.13.21-.31.37-.54.49-.23.12-.5.17-.81.17h-1.27v-2.8Zm1.24,2.27c.28,0,.5-.08.67-.23.17-.16.25-.37.25-.64s-.08-.48-.25-.63c-.17-.16-.39-.23-.67-.23h-.59v1.74h.59Z"/>
      <path class="cls-2" d="m132.59,28.04h-1.3l-.25.6h-.66l1.25-2.8h.64l1.25,2.8h-.68l-.25-.6Zm-.2-.49l-.44-1.07-.44,1.07h.89Z"/>
      <path class="cls-2" d="m134.22,25.84h1.27c.3,0,.57.06.81.17.23.12.42.28.54.49.13.21.19.46.19.74s-.06.53-.19.74c-.13.21-.31.37-.54.49-.23.12-.5.17-.81.17h-1.27v-2.8Zm1.24,2.27c.28,0,.5-.08.67-.23.17-.16.25-.37.25-.64s-.08-.48-.25-.63c-.17-.16-.39-.23-.67-.23h-.59v1.74h.59Z"/>
      <path class="cls-2" d="m140.1,28.12v.52h-2.17v-2.8h2.12v.52h-1.47v.61h1.3v.5h-1.3v.65h1.53Z"/>
      <path class="cls-2" d="m141.29,28.6c-.21-.06-.37-.14-.5-.23l.22-.49c.12.09.26.16.43.21.17.05.33.08.5.08.18,0,.32-.03.41-.08.09-.05.13-.13.13-.22,0-.07-.03-.12-.08-.17-.05-.04-.12-.08-.2-.11-.08-.03-.19-.06-.33-.09-.21-.05-.39-.1-.52-.15-.14-.05-.25-.13-.35-.24-.1-.11-.15-.26-.15-.45,0-.16.04-.31.13-.44.09-.13.22-.24.4-.31.18-.08.39-.12.65-.12.18,0,.35.02.52.06.17.04.32.1.45.18l-.2.49c-.26-.15-.52-.22-.78-.22-.18,0-.32.03-.4.09-.09.06-.13.14-.13.23s.05.17.15.21c.1.05.25.09.46.14.21.05.39.1.52.15.14.05.25.13.35.24.1.11.15.26.15.44,0,.16-.04.31-.13.44-.09.13-.22.24-.4.31-.18.08-.4.12-.65.12-.22,0-.44-.03-.64-.09Z"/>
      <path class="cls-2" d="m47.18,33.34c-.23-.12-.41-.3-.54-.52-.13-.22-.2-.47-.2-.75s.07-.53.2-.75c.13-.22.31-.39.54-.52.23-.12.49-.19.78-.19.24,0,.46.04.66.13.2.09.36.21.49.37l-.42.38c-.19-.22-.42-.33-.71-.33-.17,0-.33.04-.46.11-.14.08-.24.18-.32.32-.08.14-.11.29-.11.47s.04.33.11.46c.08.14.18.24.32.32.14.08.29.11.46.11.28,0,.52-.11.71-.33l.42.38c-.13.16-.3.29-.5.37-.2.09-.42.13-.66.13-.29,0-.54-.06-.78-.19Z"/>
      <path class="cls-2" d="m49.95,30.68h.65v2.8h-.65v-2.8Z"/>
      <path class="cls-2" d="m53.83,32.96v.52h-2.17v-2.8h2.12v.52h-1.47v.61h1.3v.5h-1.3v.65h1.53Z"/>
      <path class="cls-2" d="m57.32,30.68v2.8h-.53l-1.4-1.7v1.7h-.64v-2.8h.54l1.39,1.7v-1.7h.64Z"/>
      <path class="cls-2" d="m58.96,33.34c-.23-.12-.41-.3-.55-.52-.13-.22-.2-.47-.2-.75s.07-.53.2-.75c.13-.22.31-.39.55-.52.23-.12.49-.19.78-.19.24,0,.46.04.66.13.2.09.36.21.5.37l-.42.38c-.19-.22-.42-.33-.71-.33-.17,0-.33.04-.46.11-.14.08-.24.18-.32.32-.08.14-.11.29-.11.47s.04.33.11.46c.08.14.18.24.32.32.14.08.29.11.46.11.28,0,.52-.11.71-.33l.42.38c-.13.16-.3.29-.5.37-.2.09-.42.13-.66.13-.29,0-.54-.06-.78-.19Z"/>
      <path class="cls-2" d="m61.73,30.68h.65v2.8h-.65v-2.8Z"/>
      <path class="cls-2" d="m65.29,32.88h-1.3l-.25.6h-.66l1.25-2.8h.64l1.25,2.8h-.68l-.25-.6Zm-.2-.49l-.44-1.07-.44,1.07h.89Z"/>
      <path class="cls-2" d="m67.19,33.44c-.21-.06-.37-.14-.5-.23l.22-.49c.12.09.26.16.43.21.17.05.33.08.5.08.18,0,.32-.03.41-.08.09-.05.13-.13.13-.22,0-.07-.03-.12-.08-.17-.05-.04-.12-.08-.2-.11-.08-.03-.19-.06-.33-.09-.21-.05-.39-.1-.52-.15-.14-.05-.25-.13-.35-.24-.1-.11-.15-.26-.15-.45,0-.16.04-.31.13-.44.09-.13.22-.24.4-.31.18-.08.39-.12.65-.12.18,0,.35.02.52.06.17.04.32.1.45.18l-.2.49c-.26-.15-.52-.22-.78-.22-.18,0-.32.03-.4.09-.09.06-.13.14-.13.23s.05.17.15.21c.1.05.25.09.46.14.21.05.39.1.52.15.14.05.25.13.35.24.1.11.15.26.15.44,0,.16-.04.31-.13.44-.09.13-.22.24-.4.31-.18.08-.4.12-.65.12-.22,0-.44-.03-.64-.09Z"/>
      <path class="cls-2" d="m72.75,32.49v.99h-.65v-1l-1.09-1.8h.69l.75,1.25.75-1.25h.64l-1.09,1.81Z"/>
      <path class="cls-2" d="m76.63,31.2h-.9v-.53h2.44v.53h-.9v2.28h-.65v-2.28Z"/>
      <path class="cls-2" d="m81.09,32.96v.52h-2.17v-2.8h2.12v.52h-1.47v.61h1.3v.5h-1.3v.65h1.53Z"/>
      <path class="cls-2" d="m82.57,33.34c-.23-.12-.41-.3-.54-.52-.13-.22-.2-.47-.2-.75s.07-.53.2-.75c.13-.22.31-.39.54-.52.23-.12.49-.19.78-.19.24,0,.46.04.66.13.2.09.36.21.49.37l-.42.38c-.19-.22-.42-.33-.71-.33-.17,0-.33.04-.46.11-.14.08-.24.18-.32.32-.08.14-.11.29-.11.47s.04.33.11.46c.08.14.18.24.32.32.14.08.29.11.46.11.28,0,.52-.11.71-.33l.42.38c-.13.16-.3.29-.5.37-.2.09-.42.13-.66.13-.29,0-.54-.06-.78-.19Z"/>
      <path class="cls-2" d="m87.91,30.68v2.8h-.53l-1.4-1.7v1.7h-.64v-2.8h.54l1.39,1.7v-1.7h.64Z"/>
      <path class="cls-2" d="m89.55,33.34c-.23-.13-.42-.3-.55-.52-.13-.22-.2-.47-.2-.74s.07-.52.2-.74c.13-.22.32-.39.55-.52.23-.12.5-.19.79-.19s.55.06.79.19c.23.13.42.3.55.52.13.22.2.47.2.74s-.07.52-.2.74c-.13.22-.32.39-.55.52-.23.13-.49.19-.79.19s-.55-.06-.79-.19Zm1.24-.48c.13-.08.24-.18.31-.32.08-.14.11-.29.11-.46s-.04-.33-.11-.47c-.08-.14-.18-.24-.31-.32-.13-.08-.28-.11-.45-.11s-.32.04-.45.11c-.13.08-.24.18-.31.32-.08.14-.11.29-.11.47s.04.33.11.46c.08.14.18.24.31.32.13.08.28.11.45.11s.31-.04.45-.11Z"/>
      <path class="cls-2" d="m92.76,30.68h.65v2.28h1.41v.53h-2.06v-2.8Z"/>
      <path class="cls-2" d="m96.1,33.34c-.23-.13-.42-.3-.55-.52-.13-.22-.2-.47-.2-.74s.07-.52.2-.74c.13-.22.32-.39.55-.52.23-.12.5-.19.79-.19s.55.06.79.19c.23.13.42.3.55.52.13.22.2.47.2.74s-.07.52-.2.74c-.13.22-.32.39-.55.52-.23.13-.49.19-.79.19s-.55-.06-.79-.19Zm1.24-.48c.13-.08.24-.18.31-.32.08-.14.11-.29.11-.46s-.04-.33-.11-.47c-.08-.14-.18-.24-.31-.32-.13-.08-.28-.11-.45-.11s-.32.04-.45.11c-.13.08-.24.18-.31.32-.08.14-.11.29-.11.47s.04.33.11.46c.08.14.18.24.31.32.13.08.28.11.45.11s.31-.04.45-.11Z"/>
      <path class="cls-2" d="m101.21,32.03h.59v1.14c-.15.11-.33.2-.53.26-.2.06-.4.09-.61.09-.29,0-.55-.06-.79-.19-.23-.12-.41-.3-.55-.52-.13-.22-.2-.47-.2-.75s.07-.53.2-.75c.13-.22.32-.39.55-.52.23-.12.5-.19.79-.19.25,0,.47.04.67.12.2.08.37.2.5.36l-.42.38c-.2-.21-.44-.32-.73-.32-.18,0-.34.04-.48.11-.14.07-.25.18-.32.32-.08.14-.12.29-.12.47s.04.33.12.46c.08.14.18.24.32.32.14.08.29.11.47.11.19,0,.36-.04.5-.12v-.82Z"/>
      <path class="cls-2" d="m103.31,29.87h.67l-.73.58h-.49l.54-.58Zm-.5.8h.65v2.8h-.65v-2.8Z"/>
      <path class="cls-2" d="m106.37,32.88h-1.3l-.25.6h-.66l1.25-2.8h.64l1.25,2.8h-.68l-.25-.6Zm-.2-.49l-.44-1.07-.44,1.07h.89Z"/>
      <path class="cls-2" d="m108.27,33.44c-.21-.06-.37-.14-.5-.23l.22-.49c.12.09.26.16.43.21.17.05.33.08.5.08.18,0,.32-.03.41-.08.09-.05.13-.13.13-.22,0-.07-.03-.12-.08-.17s-.12-.08-.2-.11c-.08-.03-.19-.06-.33-.09-.21-.05-.39-.1-.52-.15-.14-.05-.25-.13-.35-.24-.1-.11-.15-.26-.15-.45,0-.16.04-.31.13-.44.09-.13.22-.24.4-.31.18-.08.39-.12.65-.12.18,0,.35.02.52.06.17.04.32.1.45.18l-.2.49c-.26-.15-.52-.22-.78-.22-.18,0-.32.03-.4.09-.09.06-.13.14-.13.23s.05.17.15.21c.1.05.25.09.46.14.21.05.39.1.52.15.14.05.25.13.35.24.1.11.15.26.15.44,0,.16-.04.31-.13.44-.09.13-.22.24-.4.31-.18.08-.4.12-.65.12-.22,0-.44-.03-.64-.09Z"/>
    </g>
  </g>
</svg>